<?xml version="1.0" encoding="UTF-8"?>
<svg width="600" height="400" viewBox="0 0 600 400" xmlns="http://www.w3.org/2000/svg">
    <!-- Background -->
    <rect width="600" height="400" fill="#f8f9fa" opacity="0.5"/>
    
    <!-- People Group -->
    <g transform="translate(150, 100)">
        <!-- Person 1 -->
        <circle cx="100" cy="80" r="40" fill="#3498db"/>
        <circle cx="100" cy="60" r="20" fill="#2c3e50"/>
        <path d="M70 120 C 70 100, 90 90, 100 90 C 110 90, 130 100, 130 120" fill="#3498db"/>
        
        <!-- Person 2 -->
        <circle cx="180" cy="100" r="40" fill="#e74c3c"/>
        <circle cx="180" cy="80" r="20" fill="#2c3e50"/>
        <path d="M150 140 C 150 120, 170 110, 180 110 C 190 110, 210 120, 210 140" fill="#e74c3c"/>
        
        <!-- Person 3 -->
        <circle cx="260" cy="80" r="40" fill="#2ecc71"/>
        <circle cx="260" cy="60" r="20" fill="#2c3e50"/>
        <path d="M230 120 C 230 100, 250 90, 260 90 C 270 90, 290 100, 290 120" fill="#2ecc71"/>
        
        <!-- Hearts -->
        <path d="M140 40 C 130 30, 120 30, 110 40 C 100 50, 110 60, 140 80 C 170 60, 180 50, 170 40 C 160 30, 150 30, 140 40" fill="#e74c3c"/>
        <path d="M220 20 C 210 10, 200 10, 190 20 C 180 30, 190 40, 220 60 C 250 40, 260 30, 250 20 C 240 10, 230 10, 220 20" fill="#e74c3c"/>
    </g>
</svg>
